<svg width="32" height="32" viewBox="0 0 32 32" fill="none" xmlns="http://www.w3.org/2000/svg">
<rect width="32" height="32" rx="4" fill="#FFE0C2"/>
<mask id="mask0_142_8463" style="mask-type:alpha" maskUnits="userSpaceOnUse" x="8" y="8" width="18" height="18">
<rect x="8" y="8" width="18" height="18" fill="#D9D9D9"/>
</mask>
<g mask="url(#mask0_142_8463)">
<path d="M21.5 23.75H13.25V14L18.5 8.75L19.4375 9.6875C19.525 9.775 19.597 9.89375 19.6535 10.0437C19.7095 10.1937 19.7375 10.3375 19.7375 10.475V10.7375L18.9125 14H23.75C24.15 14 24.5 14.15 24.8 14.45C25.1 14.75 25.25 15.1 25.25 15.5V17C25.25 17.0875 25.2375 17.1812 25.2125 17.2812C25.1875 17.3812 25.1625 17.475 25.1375 17.5625L22.8875 22.85C22.775 23.1 22.5875 23.3125 22.325 23.4875C22.0625 23.6625 21.7875 23.75 21.5 23.75ZM14.75 22.25H21.5L23.75 17V15.5H17L18.0125 11.375L14.75 14.6375V22.25ZM13.25 14V15.5H11V22.25H13.25V23.75H9.5V14H13.25Z" fill="#FF6109"/>
</g>
</svg>
