<svg width="15" height="17" viewBox="0 0 15 17" fill="none" xmlns="http://www.w3.org/2000/svg">
<path d="M2.50065 9.66667C2.50065 10.3889 2.64648 11.0728 2.93815 11.7183C3.22982 12.3644 3.64648 12.9306 4.18815 13.4167C4.17426 13.3472 4.16732 13.2847 4.16732 13.2292V13.0417C4.16732 12.5972 4.25065 12.1806 4.41732 11.7917C4.58398 11.4028 4.82704 11.0486 5.14648 10.7292L7.50065 8.41667L9.85482 10.7292C10.1743 11.0486 10.4173 11.4028 10.584 11.7917C10.7507 12.1806 10.834 12.5972 10.834 13.0417V13.2292C10.834 13.2847 10.827 13.3472 10.8132 13.4167C11.3548 12.9306 11.7715 12.3644 12.0632 11.7183C12.3548 11.0728 12.5007 10.3889 12.5007 9.66667C12.5007 8.97222 12.3723 8.31583 12.1157 7.6975C11.8584 7.07972 11.4868 6.52778 11.0007 6.04167C10.7229 6.22222 10.4312 6.3575 10.1257 6.4475C9.8201 6.53806 9.5076 6.58333 9.18815 6.58333C8.32704 6.58333 7.58065 6.29861 6.94898 5.72917C6.31676 5.15972 5.95204 4.45833 5.85482 3.625C5.31315 4.08333 4.83398 4.55889 4.41732 5.05167C4.00065 5.545 3.6501 6.045 3.36565 6.55167C3.08065 7.05889 2.86537 7.57639 2.71982 8.10417C2.57371 8.63194 2.50065 9.15278 2.50065 9.66667ZM7.50065 10.75L6.31315 11.9167C6.16037 12.0694 6.04232 12.2431 5.95898 12.4375C5.87565 12.6319 5.83398 12.8333 5.83398 13.0417C5.83398 13.4861 5.99732 13.8681 6.32398 14.1875C6.6501 14.5069 7.04232 14.6667 7.50065 14.6667C7.95898 14.6667 8.35148 14.5069 8.67815 14.1875C9.00426 13.8681 9.16732 13.4861 9.16732 13.0417C9.16732 12.8194 9.12565 12.6144 9.04232 12.4267C8.95898 12.2394 8.84093 12.0694 8.68815 11.9167L7.50065 10.75ZM7.50065 0.5V3.25C7.50065 3.72222 7.66398 4.11806 7.99065 4.4375C8.31676 4.75694 8.71593 4.91667 9.18815 4.91667C9.43815 4.91667 9.67093 4.86472 9.88648 4.76083C10.1015 4.65639 10.2923 4.5 10.459 4.29167L10.834 3.83333C11.8618 4.41667 12.6743 5.22917 13.2715 6.27083C13.8687 7.3125 14.1673 8.44444 14.1673 9.66667C14.1673 11.5278 13.5215 13.1042 12.2298 14.3958C10.9382 15.6875 9.36176 16.3333 7.50065 16.3333C5.63954 16.3333 4.06315 15.6875 2.77148 14.3958C1.47982 13.1042 0.833984 11.5278 0.833984 9.66667C0.833984 7.875 1.43482 6.17361 2.63648 4.5625C3.8376 2.95139 5.45898 1.59722 7.50065 0.5Z" fill="#FF6109"/>
</svg>
