<svg width="18" height="18" viewBox="0 0 18 18" fill="none" xmlns="http://www.w3.org/2000/svg">
<path d="M11.1243 12.7913L8.16602 9.83293V5.66626H9.83268V9.14543L12.291 11.6038L11.1243 12.7913ZM8.16602 3.99959V2.33293H9.83268V3.99959H8.16602ZM13.9993 9.83293V8.16626H15.666V9.83293H13.9993ZM8.16602 15.6663V13.9996H9.83268V15.6663H8.16602ZM2.33268 9.83293V8.16626H3.99935V9.83293H2.33268ZM8.99935 17.3329C7.84657 17.3329 6.76324 17.114 5.74935 16.6763C4.73546 16.239 3.85352 15.6454 3.10352 14.8954C2.35352 14.1454 1.7599 13.2635 1.32268 12.2496C0.884905 11.2357 0.666016 10.1524 0.666016 8.99959C0.666016 7.84682 0.884905 6.76348 1.32268 5.74959C1.7599 4.7357 2.35352 3.85376 3.10352 3.10376C3.85352 2.35376 4.73546 1.75987 5.74935 1.32209C6.76324 0.884871 7.84657 0.66626 8.99935 0.66626C10.1521 0.66626 11.2355 0.884871 12.2493 1.32209C13.2632 1.75987 14.1452 2.35376 14.8952 3.10376C15.6452 3.85376 16.2388 4.7357 16.676 5.74959C17.1138 6.76348 17.3327 7.84682 17.3327 8.99959C17.3327 10.1524 17.1138 11.2357 16.676 12.2496C16.2388 13.2635 15.6452 14.1454 14.8952 14.8954C14.1452 15.6454 13.2632 16.239 12.2493 16.6763C11.2355 17.114 10.1521 17.3329 8.99935 17.3329ZM8.99935 15.6663C10.8605 15.6663 12.4368 15.0204 13.7285 13.7288C15.0202 12.4371 15.666 10.8607 15.666 8.99959C15.666 7.13848 15.0202 5.56209 13.7285 4.27043C12.4368 2.97876 10.8605 2.33293 8.99935 2.33293C7.13824 2.33293 5.56185 2.97876 4.27018 4.27043C2.97852 5.56209 2.33268 7.13848 2.33268 8.99959C2.33268 10.8607 2.97852 12.4371 4.27018 13.7288C5.56185 15.0204 7.13824 15.6663 8.99935 15.6663Z" fill="#AFB1B6"/>
</svg>
