<svg width="17" height="18" viewBox="0 0 17 18" fill="none" xmlns="http://www.w3.org/2000/svg">
<path d="M10.6243 12.791L7.66602 9.83268V5.66602H9.33268V9.14518L11.791 11.6035L10.6243 12.791ZM7.66602 3.99935V2.33268H9.33268V3.99935H7.66602ZM13.4993 9.83268V8.16602H15.166V9.83268H13.4993ZM7.66602 15.666V13.9993H9.33268V15.666H7.66602ZM1.83268 9.83268V8.16602H3.49935V9.83268H1.83268ZM8.49935 17.3327C7.34657 17.3327 6.26324 17.1138 5.24935 16.676C4.23546 16.2388 3.35352 15.6452 2.60352 14.8952C1.85352 14.1452 1.2599 13.2632 0.822682 12.2493C0.384905 11.2355 0.166016 10.1521 0.166016 8.99935C0.166016 7.84657 0.384905 6.76324 0.822682 5.74935C1.2599 4.73546 1.85352 3.85352 2.60352 3.10352C3.35352 2.35352 4.23546 1.75963 5.24935 1.32185C6.26324 0.884627 7.34657 0.666016 8.49935 0.666016C9.65213 0.666016 10.7355 0.884627 11.7493 1.32185C12.7632 1.75963 13.6452 2.35352 14.3952 3.10352C15.1452 3.85352 15.7388 4.73546 16.176 5.74935C16.6138 6.76324 16.8327 7.84657 16.8327 8.99935C16.8327 10.1521 16.6138 11.2355 16.176 12.2493C15.7388 13.2632 15.1452 14.1452 14.3952 14.8952C13.6452 15.6452 12.7632 16.2388 11.7493 16.676C10.7355 17.1138 9.65213 17.3327 8.49935 17.3327ZM8.49935 15.666C10.3605 15.666 11.9368 15.0202 13.2285 13.7285C14.5202 12.4368 15.166 10.8605 15.166 8.99935C15.166 7.13824 14.5202 5.56185 13.2285 4.27018C11.9368 2.97852 10.3605 2.33268 8.49935 2.33268C6.63824 2.33268 5.06185 2.97852 3.77018 4.27018C2.47852 5.56185 1.83268 7.13824 1.83268 8.99935C1.83268 10.8605 2.47852 12.4368 3.77018 13.7285C5.06185 15.0202 6.63824 15.666 8.49935 15.666Z" fill="#FF6109"/>
</svg>
