<svg width="22" height="22" viewBox="0 0 22 22" fill="none" xmlns="http://www.w3.org/2000/svg">
<rect width="22" height="22" rx="11" fill="#FF6109"/>
<mask id="mask0_110_11393" style="mask-type:alpha" maskUnits="userSpaceOnUse" x="6" y="6" width="10" height="10">
<rect x="6" y="6" width="10" height="10" fill="#D9D9D9"/>
</mask>
<g mask="url(#mask0_110_11393)">
<path d="M11.0007 14.7501L10.3965 14.2084C9.6951 13.5765 9.11523 13.0313 8.6569 12.573C8.19857 12.1147 7.83398 11.7031 7.56315 11.3384C7.29232 10.974 7.10315 10.639 6.99565 10.3334C6.88787 10.0279 6.83398 9.71536 6.83398 9.39591C6.83398 8.74314 7.05273 8.198 7.49023 7.7605C7.92773 7.323 8.47287 7.10425 9.12565 7.10425C9.48676 7.10425 9.83051 7.18064 10.1569 7.33341C10.4833 7.48619 10.7645 7.70147 11.0007 7.97925C11.2368 7.70147 11.518 7.48619 11.8444 7.33341C12.1708 7.18064 12.5145 7.10425 12.8757 7.10425C13.5284 7.10425 14.0736 7.323 14.5111 7.7605C14.9486 8.198 15.1673 8.74314 15.1673 9.39591C15.1673 9.71536 15.1136 10.0279 15.0061 10.3334C14.8983 10.639 14.709 10.974 14.4382 11.3384C14.1673 11.7031 13.8027 12.1147 13.3444 12.573C12.8861 13.0313 12.3062 13.5765 11.6048 14.2084L11.0007 14.7501ZM11.0007 13.6251C11.6673 13.0279 12.2159 12.5156 12.6465 12.0884C13.077 11.6615 13.4173 11.2901 13.6673 10.9742C13.9173 10.6581 14.0909 10.3767 14.1882 10.1301C14.2854 9.88369 14.334 9.63897 14.334 9.39591C14.334 8.97925 14.1951 8.63203 13.9173 8.35425C13.6395 8.07647 13.2923 7.93758 12.8757 7.93758C12.5493 7.93758 12.2472 8.02953 11.9694 8.21341C11.6916 8.39758 11.5007 8.63203 11.3965 8.91675H10.6048C10.5007 8.63203 10.3097 8.39758 10.0319 8.21341C9.75412 8.02953 9.45204 7.93758 9.12565 7.93758C8.70898 7.93758 8.36176 8.07647 8.08398 8.35425C7.80621 8.63203 7.66732 8.97925 7.66732 9.39591C7.66732 9.63897 7.71593 9.88369 7.81315 10.1301C7.91037 10.3767 8.08398 10.6581 8.33398 10.9742C8.58398 11.2901 8.92426 11.6615 9.35482 12.0884C9.78537 12.5156 10.334 13.0279 11.0007 13.6251Z" fill="white"/>
</g>
</svg>
