<svg width="44" height="44" viewBox="0 0 44 44" fill="none" xmlns="http://www.w3.org/2000/svg">
<path d="M22.0007 43.6668C19.0034 43.6668 16.1868 43.0977 13.5507 41.9595C10.9145 40.8227 8.62148 39.2793 6.67148 37.3293C4.72149 35.3793 3.1781 33.0863 2.04132 30.4502C0.903096 27.8141 0.333984 24.9974 0.333984 22.0002C0.333984 19.0029 0.903096 16.1863 2.04132 13.5502C3.1781 10.9141 4.72149 8.621 6.67148 6.671C8.62148 4.721 10.9145 3.17688 13.5507 2.03866C16.1868 0.901885 19.0034 0.333496 22.0007 0.333496C24.3479 0.333496 26.5687 0.676551 28.6632 1.36266C30.7576 2.04877 32.6895 3.00572 34.459 4.2335L31.3173 7.42933C29.9451 6.56266 28.4826 5.88522 26.9298 5.397C25.377 4.91022 23.734 4.66683 22.0007 4.66683C17.1979 4.66683 13.1087 6.35466 9.73298 9.73033C6.35587 13.1074 4.66732 17.1974 4.66732 22.0002C4.66732 26.8029 6.35587 30.8929 9.73298 34.27C13.1087 37.6457 17.1979 39.3335 22.0007 39.3335C26.8034 39.3335 30.8934 37.6457 34.2705 34.27C37.6462 30.8929 39.334 26.8029 39.334 22.0002C39.334 21.3502 39.2979 20.7002 39.2257 20.0502C39.1534 19.4002 39.0451 18.7682 38.9007 18.1543L42.4215 14.6335C42.8187 15.7891 43.1257 16.9807 43.3423 18.2085C43.559 19.4363 43.6673 20.7002 43.6673 22.0002C43.6673 24.9974 43.0982 27.8141 41.96 30.4502C40.8232 33.0863 39.2798 35.3793 37.3298 37.3293C35.3798 39.2793 33.0868 40.8227 30.4507 41.9595C27.8145 43.0977 24.9979 43.6668 22.0007 43.6668ZM18.9673 31.9668L9.75898 22.7585L12.7923 19.7252L18.9673 25.9002L40.634 4.17933L43.6673 7.21266L18.9673 31.9668Z" fill="#FF6109"/>
</svg>
