<svg width="14" height="13" viewBox="0 0 14 13" fill="none" xmlns="http://www.w3.org/2000/svg">
<path d="M7.00189 12.7954L6.06818 11.9583C4.98422 10.9817 4.08807 10.1392 3.37973 9.43083C2.6714 8.7225 2.10795 8.0865 1.68939 7.52284C1.27083 6.95961 0.978485 6.44188 0.812349 5.96966C0.645783 5.49743 0.5625 5.01448 0.5625 4.52079C0.5625 3.51195 0.900568 2.66947 1.5767 1.99333C2.25284 1.31719 3.09533 0.979126 4.10417 0.979126C4.66225 0.979126 5.1935 1.09718 5.69792 1.33329C6.20234 1.5694 6.637 1.90211 7.00189 2.3314C7.36679 1.90211 7.80145 1.5694 8.30587 1.33329C8.81029 1.09718 9.34154 0.979126 9.89962 0.979126C10.9085 0.979126 11.7509 1.31719 12.4271 1.99333C13.1032 2.66947 13.4413 3.51195 13.4413 4.52079C13.4413 5.01448 13.3582 5.49743 13.1921 5.96966C13.0255 6.44188 12.733 6.95961 12.3144 7.52284C11.8958 8.0865 11.3324 8.7225 10.6241 9.43083C9.91572 10.1392 9.01957 10.9817 7.93561 11.9583L7.00189 12.7954ZM7.00189 11.0568C8.0322 10.1338 8.88005 9.34218 9.54545 8.68193C10.2109 8.0221 10.7367 7.44814 11.1231 6.96003C11.5095 6.4715 11.7778 6.03662 11.928 5.65541C12.0783 5.27463 12.1534 4.89642 12.1534 4.52079C12.1534 3.87685 11.9388 3.34024 11.5095 2.91094C11.0802 2.48165 10.5436 2.267 9.89962 2.267C9.3952 2.267 8.92835 2.4091 8.49905 2.69329C8.06976 2.97791 7.77462 3.34024 7.61364 3.78026H6.39015C6.22917 3.34024 5.93403 2.97791 5.50474 2.69329C5.07544 2.4091 4.60859 2.267 4.10417 2.267C3.46023 2.267 2.92361 2.48165 2.49432 2.91094C2.06503 3.34024 1.85038 3.87685 1.85038 4.52079C1.85038 4.89642 1.92551 5.27463 2.07576 5.65541C2.22601 6.03662 2.49432 6.4715 2.88068 6.96003C3.26705 7.44814 3.79293 8.0221 4.45833 8.68193C5.12374 9.34218 5.97159 10.1338 7.00189 11.0568Z" fill="white"/>
</svg>
