<svg width="32" height="32" viewBox="0 0 32 32" fill="none" xmlns="http://www.w3.org/2000/svg">
<rect width="32" height="32" rx="4" fill="#FFE0C2"/>
<mask id="mask0_142_8464" style="mask-type:alpha" maskUnits="userSpaceOnUse" x="8" y="8" width="18" height="18">
<rect x="8" y="8" width="18" height="18" fill="#D9D9D9"/>
</mask>
<g mask="url(#mask0_142_8464)">
<path d="M12.5 10.25H20.75V20L15.5 25.25L14.5625 24.3125C14.475 24.225 14.4033 24.1062 14.3472 23.9562C14.2908 23.8062 14.2625 23.6625 14.2625 23.525V23.2625L15.0875 20H10.25C9.85 20 9.5 19.85 9.2 19.55C8.9 19.25 8.75 18.9 8.75 18.5V17C8.75 16.9125 8.7625 16.8187 8.7875 16.7188C8.8125 16.6188 8.8375 16.525 8.8625 16.4375L11.1125 11.15C11.225 10.9 11.4125 10.6875 11.675 10.5125C11.9375 10.3375 12.2125 10.25 12.5 10.25ZM19.25 11.75H12.5L10.25 17V18.5H17L15.9875 22.625L19.25 19.3625V11.75ZM20.75 20V18.5H23V11.75H20.75V10.25H24.5V20H20.75Z" fill="#FF6109"/>
</g>
</svg>
