<svg width="18" height="18" viewBox="0 0 18 18" fill="none" xmlns="http://www.w3.org/2000/svg">
<path d="M9.83268 8.16675H15.6243C15.416 6.63897 14.7807 5.34369 13.7185 4.28091C12.6557 3.21869 11.3605 2.58341 9.83268 2.37508V8.16675ZM8.16602 15.6251V2.37508C6.48546 2.58341 5.09324 3.31591 3.98935 4.57258C2.8849 5.8298 2.33268 7.30564 2.33268 9.00008C2.33268 10.6945 2.8849 12.1701 3.98935 13.4267C5.09324 14.684 6.48546 15.4167 8.16602 15.6251ZM9.83268 15.6251C11.3605 15.4306 12.6591 14.7987 13.7285 13.7292C14.798 12.6598 15.4299 11.3612 15.6243 9.83341H9.83268V15.6251ZM8.99935 17.3334C7.84657 17.3334 6.76324 17.1145 5.74935 16.6767C4.73546 16.2395 3.85352 15.6459 3.10352 14.8959C2.35352 14.1459 1.7599 13.264 1.32268 12.2501C0.884905 11.2362 0.666016 10.1529 0.666016 9.00008C0.666016 7.8473 0.884905 6.76397 1.32268 5.75008C1.7599 4.73619 2.35352 3.85425 3.10352 3.10425C3.85352 2.35425 4.73546 1.76036 5.74935 1.32258C6.76324 0.885359 7.84657 0.666748 8.99935 0.666748C10.1521 0.666748 11.2318 0.885359 12.2385 1.32258C13.2457 1.76036 14.1277 2.35786 14.8843 3.11508C15.6416 3.87175 16.2388 4.75369 16.676 5.76091C17.1138 6.76758 17.3327 7.8473 17.3327 9.00008C17.3327 10.139 17.1138 11.2154 16.676 12.2292C16.2388 13.2431 15.6452 14.1284 14.8952 14.8851C14.1452 15.6423 13.2632 16.2395 12.2493 16.6767C11.2355 17.1145 10.1521 17.3334 8.99935 17.3334Z" fill="#AFB1B6"/>
</svg>
