<svg width="17" height="18" viewBox="0 0 17 18" fill="none" xmlns="http://www.w3.org/2000/svg">
<path d="M9.33268 8.16699H15.1243C14.916 6.63921 14.2807 5.34394 13.2185 4.28116C12.1557 3.21894 10.8605 2.58366 9.33268 2.37533V8.16699ZM7.66602 15.6253V2.37533C5.98546 2.58366 4.59324 3.31616 3.48935 4.57283C2.3849 5.83005 1.83268 7.30588 1.83268 9.00033C1.83268 10.6948 2.3849 12.1703 3.48935 13.427C4.59324 14.6842 5.98546 15.417 7.66602 15.6253ZM9.33268 15.6253C10.8605 15.4309 12.1591 14.7989 13.2285 13.7295C14.298 12.66 14.9299 11.3614 15.1243 9.83366H9.33268V15.6253ZM8.49935 17.3337C7.34657 17.3337 6.26324 17.1148 5.24935 16.677C4.23546 16.2398 3.35352 15.6462 2.60352 14.8962C1.85352 14.1462 1.2599 13.2642 0.822682 12.2503C0.384905 11.2364 0.166016 10.1531 0.166016 9.00033C0.166016 7.84755 0.384905 6.76421 0.822682 5.75033C1.2599 4.73644 1.85352 3.85449 2.60352 3.10449C3.35352 2.35449 4.23546 1.7606 5.24935 1.32283C6.26324 0.885603 7.34657 0.666992 8.49935 0.666992C9.65213 0.666992 10.7318 0.885603 11.7385 1.32283C12.7457 1.7606 13.6277 2.3581 14.3843 3.11533C15.1416 3.87199 15.7388 4.75394 16.176 5.76116C16.6138 6.76783 16.8327 7.84755 16.8327 9.00033C16.8327 10.1392 16.6138 11.2156 16.176 12.2295C15.7388 13.2434 15.1452 14.1287 14.3952 14.8853C13.6452 15.6425 12.7632 16.2398 11.7493 16.677C10.7355 17.1148 9.65213 17.3337 8.49935 17.3337Z" fill="#FF6109"/>
</svg>
