<svg width="19" height="20" viewBox="0 0 19 20" fill="none" xmlns="http://www.w3.org/2000/svg">
<path d="M15.4173 6.66634C14.834 6.66634 14.3409 6.46495 13.9382 6.06217C13.5354 5.6594 13.334 5.16634 13.334 4.58301C13.334 4.23579 13.4418 3.8469 13.6573 3.41634C13.8723 2.98579 14.1118 2.57606 14.3757 2.18717C14.6812 1.74273 15.0284 1.29134 15.4173 0.833008C15.8062 1.29134 16.1534 1.74273 16.459 2.18717C16.7229 2.57606 16.9626 2.98579 17.1782 3.41634C17.3932 3.8469 17.5007 4.23579 17.5007 4.58301C17.5007 5.16634 17.2993 5.6594 16.8965 6.06217C16.4937 6.46495 16.0007 6.66634 15.4173 6.66634ZM11.2507 7.49967C10.9034 7.49967 10.6084 7.37801 10.3657 7.13468C10.1223 6.8919 10.0007 6.5969 10.0007 6.24967C10.0007 6.06912 10.0668 5.86079 10.199 5.62467C10.3307 5.38856 10.4729 5.1594 10.6257 4.93717C10.8062 4.68717 11.0145 4.43023 11.2507 4.16634C11.4868 4.43023 11.6951 4.68717 11.8757 4.93717C12.0284 5.1594 12.1707 5.38856 12.3023 5.62467C12.4345 5.86079 12.5007 6.06912 12.5007 6.24967C12.5007 6.5969 12.379 6.8919 12.1357 7.13468C11.8929 7.37801 11.5979 7.49967 11.2507 7.49967ZM3.33398 19.1663C2.63954 19.1663 2.04926 18.9233 1.56315 18.4372C1.07704 17.9511 0.833984 17.3608 0.833984 16.6663V11.6455C0.833984 11.2983 0.903429 10.9683 1.04232 10.6555C1.18121 10.3433 1.37565 10.0691 1.62565 9.83301L7.60482 4.16634L8.52148 5.12467C8.66037 5.27745 8.73676 5.44745 8.75065 5.63467C8.76454 5.82245 8.72287 5.99967 8.62565 6.16634L7.39648 8.33301H15.6882C15.9659 8.33301 16.1987 8.43717 16.3865 8.64551C16.5737 8.85384 16.6673 9.0969 16.6673 9.37467C16.6673 9.66634 16.5668 9.91273 16.3657 10.1138C16.164 10.3155 15.9173 10.4163 15.6257 10.4163H10.0007V11.2497H17.2923C17.584 11.2497 17.8307 11.3505 18.0323 11.5522C18.2334 11.7533 18.334 11.9997 18.334 12.2913C18.334 12.583 18.2334 12.8294 18.0323 13.0305C17.8307 13.2322 17.584 13.333 17.2923 13.333H10.0007V14.1663H16.459C16.7507 14.1663 16.9973 14.2672 17.199 14.4688C17.4001 14.67 17.5007 14.9163 17.5007 15.208C17.5007 15.4997 17.4001 15.7461 17.199 15.9472C16.9973 16.1488 16.7507 16.2497 16.459 16.2497H10.0007V17.083H14.7923C15.084 17.083 15.3307 17.1838 15.5323 17.3855C15.7334 17.5866 15.834 17.833 15.834 18.1247C15.834 18.4163 15.7334 18.6627 15.5323 18.8638C15.3307 19.0655 15.084 19.1663 14.7923 19.1663H3.33398ZM3.33398 17.4997H8.33398V9.99967H5.83398V8.14551L2.79232 10.9997C2.73676 11.0413 2.67426 11.1211 2.60482 11.2388C2.53537 11.3572 2.50065 11.4997 2.50065 11.6663V16.6663C2.50065 16.9025 2.58065 17.1002 2.74065 17.2597C2.9001 17.4197 3.09787 17.4997 3.33398 17.4997Z" fill="#FF6109"/>
</svg>
